<?xml version="1.0" encoding="UTF-8" standalone="no"?>
<!-- Created with Inkscape (http://www.inkscape.org/) -->

<svg
   version="1.1"
   id="svg1"
   width="96"
   height="96"
   viewBox="0 0 96 96"
   sodipodi:docname="AIGO.svg"
   inkscape:version="1.3.2 (091e20e, 2023-11-25, custom)"
   xmlns:inkscape="http://www.inkscape.org/namespaces/inkscape"
   xmlns:sodipodi="http://sodipodi.sourceforge.net/DTD/sodipodi-0.dtd"
   xmlns="http://www.w3.org/2000/svg"
   xmlns:svg="http://www.w3.org/2000/svg">
  <defs
     id="defs1" />
  <sodipodi:namedview
     id="namedview1"
     pagecolor="#505050"
     bordercolor="#eeeeee"
     borderopacity="1"
     inkscape:showpageshadow="0"
     inkscape:pageopacity="0"
     inkscape:pagecheckerboard="0"
     inkscape:deskcolor="#505050"
     showguides="true"
     inkscape:zoom="4.0732297"
     inkscape:cx="45.050246"
     inkscape:cy="66.654724"
     inkscape:window-width="1920"
     inkscape:window-height="1009"
     inkscape:window-x="-8"
     inkscape:window-y="-8"
     inkscape:window-maximized="1"
     inkscape:current-layer="g1" />
  <g
     inkscape:groupmode="layer"
     inkscape:label="Image"
     id="g1">
    <path
       d="M 36.637176,44.18057 H 56.16956 v 4.265693 H 36.637176 Z m 21.552976,-3.816673 v -3.592163 h 28.06377 v 3.592163 h -13.91963 l -1.122551,6.286285 H 81.539209 L 81.090188,58.1002 h 6.735305 v 3.592162 H 56.618581 V 58.1002 h 7.857855 l 1.796082,-7.857856 h -6.510795 v -3.592162 h 7.184325 l 1.122551,-6.286285 z m -18.634344,0 v -4.265693 h 13.69512 v 4.265693 z m 0,16.164732 v -4.265693 h 13.69512 v 4.265693 z m 0,7.857855 v -4.265693 h 13.69512 v 4.265693 z m -0.89804,22.226507 V 68.203157 H 54.373479 V 85.49044 H 50.556806 V 83.918869 H 42.47444 v 2.694122 z m 3.816672,-6.286285 h 8.082366 V 71.79532 H 42.47444 Z M 60.659764,86.16397 V 65.733545 H 84.233331 V 85.93946 h -4.490204 v -2.245102 h -14.59316 v 2.469612 z m 19.083363,-6.735305 v -9.429426 h -14.59316 v 9.429426 z M 68.96664,58.1002 h 7.857855 l 0.449021,-7.857856 h -6.735305 z"
       id="text1"
       style="font-size:57.4746px;stroke-width:32.5842;stroke-linecap:round;stroke-linejoin:round;paint-order:stroke fill markers"
       aria-label="語" />
    <path
       style="fill:#080808;stroke:none;stroke-width:0.148039"
       d="m 10.874192,29.33123 c -0.685806,1.817851 -0.501266,3.83515 1.332927,4.903125 0.699512,0.407297 1.713128,0.422535 2.311977,0.946495 0.537438,0.470233 0.793651,1.146729 1.390612,1.583547 1.48452,1.086259 4.531369,1.46657 5.623334,-0.327268 1.535251,1.455441 4.011885,1.63712 5.771375,0.349657 0.611098,-0.447161 0.880719,-1.30485 1.513635,-1.678011 0.691382,-0.407637 1.723774,-0.298776 2.485603,-0.642533 2.141573,-0.966332 2.535128,-3.099667 1.776476,-5.135012 1.956201,-0.930816 2.786978,-3.093938 2.289815,-5.181385 -0.15968,-0.670452 -0.796781,-1.199467 -0.890406,-1.861686 -0.148998,-1.053897 0.873451,-2.491519 0.95586,-3.615778 0.175841,-2.398856 -0.570212,-5.001511 -2.505479,-6.562748 -0.831833,-0.671063 -1.967347,-0.88015 -2.754496,-1.535335 -0.617078,-0.513632 -0.932323,-1.3213313 -1.563784,-1.8531253 -1.642073,-1.382896 -5.382029,-2.383504 -6.930559,-0.411564 -1.964353,-1.832748 -5.545939,-1.045841 -7.549448,0.433383 -0.702104,0.518373 -1.042783,1.3057513 -1.684635,1.8523213 -1.848575,1.574155 -3.5415313,2.040638 -4.3205643,4.672158 -0.429438,1.450614 -0.480073,2.966526 -0.150095,4.441187 0.166835,0.745583 0.698722,1.611553 0.685139,2.368633 -0.01379,0.769097 -0.712188,1.449154 -0.847457,2.220594 -0.373673,2.131035 1.006762,4.377888 3.0601703,5.033345 M 20.940884,17.784143 h -1.924515 v -3.25687 c -0.781397,0 -1.908355,0.207283 -2.639582,-0.08932 -0.779623,-0.316241 -1.128344,-1.219197 -2.097685,-1.166843 -2.158559,0.116589 -2.369181,3.044232 -0.444119,3.74874 1.289456,0.471897 2.439024,-1.16006 3.84903,-1.160216 v 3.256871 h 3.256871 v 5.329424 h -4.589228 c 0,1.161686 0.270797,2.703876 -0.04706,3.821727 -0.251042,0.882876 -1.322888,1.144823 -1.239831,2.247895 0.16526,2.194834 3.18946,2.256416 3.802081,0.29608 0.345755,-1.106386 -0.734494,-1.548147 -1.093506,-2.410897 -0.299531,-0.719808 -0.08933,-1.85065 -0.08933,-2.622449 h 3.256871 v 6.809821 c 0,0.880766 0.226744,2.148805 -0.215662,2.945258 -1.204948,2.169248 -4.936877,0.203018 -5.113763,-1.760941 -1.945222,-0.08352 -4.22099,-0.8572 -3.800368,-3.256872 0.122971,-0.701553 0.543736,-1.290722 0.839577,-1.924513 -2.241912,-0.224689 -4.3596363,-2.399846 -3.3505393,-4.737267 0.49513,-1.146889 1.8259593,-1.730723 3.0293293,-1.243031 0.575656,0.2333 0.877104,0.83289 1.505526,1.01012 1.109786,0.31299 2.344803,-0.541498 2.453962,-1.691603 0.09551,-1.006306 -0.877658,-2.004797 -1.861803,-2.05005 -1.482089,-0.06815 -2.744881,2.399754 -4.5137233,1.157698 -0.708876,-0.497763 -0.805912,-2.177427 -0.815131,-2.956677 -0.03221,-2.722762 1.3002323,-6.074163 4.4406163,-6.217662 0.378696,-2.0907983 2.965526,-3.1662383 4.885306,-3.2510463 0.691683,-0.03056 1.633284,-0.138331 2.112878,0.472104 0.546378,0.69544 0.403795,1.8073993 0.403795,2.6309023 v 6.069622 m 11.843168,10.214731 v -2.960791 c -1.350152,0.399084 -3.036801,0.14867 -4.441187,0.148039 -0.571235,-2.95e-4 -1.334917,0.124303 -1.458464,-0.600837 -0.287907,-1.689812 1.881855,-2.564229 1.115322,-4.136312 -0.790278,-1.62079 -3.174094,-1.577969 -3.595445,0.295962 -0.26337,1.171325 0.663583,1.474395 1.036509,2.393763 0.355727,0.876977 0.08933,2.291693 0.08933,3.231741 h 6.069622 c 0,0.909175 -0.122667,1.918877 0.05609,2.812752 0.211488,1.057569 0.908697,2.035126 0.26101,3.108263 -0.943027,1.562473 -2.514692,0.877346 -3.848685,1.55704 -0.749634,0.381955 -0.847474,1.51141 -1.650368,1.983801 -0.394755,0.232256 -0.878873,0.374542 -1.331786,0.429498 -3.415529,0.414419 -2.812752,-2.741624 -2.812752,-5.154088 0.781399,0 1.908352,-0.207283 2.639584,0.08933 0.965776,0.391749 1.305677,1.385709 2.541691,0.998354 1.997476,-0.625985 1.614793,-3.551872 -0.444008,-3.718007 -1.063256,-0.0858 -1.307185,0.85246 -2.120644,1.208646 -0.702705,0.307693 -1.857665,0.08933 -2.616623,0.08933 v -13.91572 c 1.555176,0 3.659209,-0.375929 5.154086,0.04706 0.87547,0.247727 1.160957,1.325739 2.247895,1.222583 2.223179,-0.210994 2.328124,-3.444166 0.148039,-3.849029 -1.151073,-0.213769 -1.483197,0.941761 -2.395934,1.199966 -1.49499,0.422915 -3.598824,0.04706 -5.154086,0.04706 0,-1.457673 -0.551527,-4.413569 0.540642,-5.5613093 1.151765,-1.210364 4.405909,0.01223 5.332168,0.999494 0.463921,0.4944763 0.573257,1.3730023 1.126173,1.7507753 1.502943,1.026856 2.947775,1.016634 4.033052,2.81104 0.953372,1.576309 1.071402,3.592065 0.556405,5.329425 -0.222401,0.750273 -0.867369,1.73911 -0.847572,2.516672 0.01592,0.625292 0.686139,1.08589 0.933585,1.628435 0.586967,1.286978 0.138372,3.375274 -1.163641,3.997069 M 14.152309,14.632695 c 0.729481,-0.227517 1.138273,0.877366 0.401627,1.128915 -0.737193,0.251734 -1.141083,-0.898284 -0.401627,-1.128915 m 15.246479,0 c 0.70668,-0.223849 1.091917,0.848327 0.391232,1.108356 -0.733761,0.272308 -1.119433,-0.877686 -0.391232,-1.108356 m -3.270578,5.927409 c 0.695538,-0.171219 0.921634,0.909408 0.270491,1.115667 -0.768077,0.243298 -1.04574,-0.924825 -0.270491,-1.115667 m -11.975787,0.726949 c 0.733328,-0.251914 1.122193,0.907051 0.389633,1.09065 -0.656811,0.164611 -1.090039,-0.850049 -0.389633,-1.09065 m 2.664598,8.586296 c 0.793977,-0.27115 1.065002,0.940179 0.269007,1.111208 -0.696612,0.149684 -0.915013,-0.890595 -0.269007,-1.111208 m 9.918654,0 c 0.793979,-0.27115 1.064992,0.940179 0.269007,1.111208 -0.696608,0.149679 -0.915013,-0.890595 -0.269007,-1.111208 z"
       id="path1" />
  </g>
</svg>
